<mxfile host="app.diagrams.net" modified="2021-08-03T04:14:19.466Z" agent="5.0 (Windows NT 10.0; Win64; x64) AppleWebKit/537.36 (KHTML, like Gecko) Chrome/92.0.4515.131 Safari/537.36" etag="Ukduk1MjTQMX0boPzwXz" version="14.9.3" type="github">
  <diagram id="OFISlrnKLpWPtDzpPDcQ" name="Page-1">
    <mxGraphModel dx="1422" dy="762" grid="1" gridSize="10" guides="1" tooltips="1" connect="1" arrows="1" fold="1" page="1" pageScale="1" pageWidth="827" pageHeight="1169" math="0" shadow="0">
      <root>
        <mxCell id="0" />
        <mxCell id="1" parent="0" />
        <mxCell id="wEHBRAMho83SRR6PWmGS-1" value="Storage" style="swimlane;" vertex="1" parent="1">
          <mxGeometry x="220" y="455" width="120" height="130" as="geometry" />
        </mxCell>
        <mxCell id="wEHBRAMho83SRR6PWmGS-2" value="API-server" style="swimlane;" vertex="1" parent="1">
          <mxGeometry x="280" y="80" width="120" height="130" as="geometry" />
        </mxCell>
        <mxCell id="wEHBRAMho83SRR6PWmGS-3" value="Data-server" style="swimlane;" vertex="1" parent="1">
          <mxGeometry x="450" y="80" width="120" height="130" as="geometry" />
        </mxCell>
        <mxCell id="wEHBRAMho83SRR6PWmGS-4" value="Static Web Apps" style="swimlane;" vertex="1" parent="1">
          <mxGeometry x="110" y="80" width="120" height="130" as="geometry" />
        </mxCell>
        <mxCell id="wEHBRAMho83SRR6PWmGS-5" value="RabbitMQ" style="swimlane;" vertex="1" parent="1">
          <mxGeometry x="220" y="290" width="120" height="130" as="geometry" />
        </mxCell>
        <mxCell id="wEHBRAMho83SRR6PWmGS-6" value="CosmosDB" style="swimlane;" vertex="1" parent="1">
          <mxGeometry x="440" y="290" width="120" height="130" as="geometry" />
        </mxCell>
        <mxCell id="wEHBRAMho83SRR6PWmGS-7" value="InfluxDB" style="swimlane;" vertex="1" parent="1">
          <mxGeometry x="600" y="290" width="120" height="130" as="geometry" />
        </mxCell>
        <mxCell id="wEHBRAMho83SRR6PWmGS-8" value="Alarm-server" style="swimlane;" vertex="1" parent="1">
          <mxGeometry x="630" y="80" width="120" height="130" as="geometry" />
        </mxCell>
        <mxCell id="wEHBRAMho83SRR6PWmGS-9" value="Node + Express" style="text;html=1;align=center;verticalAlign=middle;resizable=0;points=[];autosize=1;strokeColor=none;" vertex="1" parent="1">
          <mxGeometry x="290" y="120" width="100" height="20" as="geometry" />
        </mxCell>
        <mxCell id="wEHBRAMho83SRR6PWmGS-10" value="Node + Express" style="text;html=1;align=center;verticalAlign=middle;resizable=0;points=[];autosize=1;strokeColor=none;" vertex="1" parent="1">
          <mxGeometry x="460" y="120" width="100" height="20" as="geometry" />
        </mxCell>
        <mxCell id="wEHBRAMho83SRR6PWmGS-11" value="Node + Express" style="text;html=1;align=center;verticalAlign=middle;resizable=0;points=[];autosize=1;strokeColor=none;" vertex="1" parent="1">
          <mxGeometry x="640" y="120" width="100" height="20" as="geometry" />
        </mxCell>
      </root>
    </mxGraphModel>
  </diagram>
</mxfile>
